{"asset":{"version":"2.0","generator":"CAD-GLTF Exporter"},"scenes":[{"nodes":[0]}],"scene":0,"nodes":[{"mesh":0}],"bufferViews":[{"buffer":0,"byteOffset":0,"byteLength":478260,"target":34962,"byteStride":12},{"buffer":0,"byteOffset":478260,"byteLength":478260,"target":34962,"byteStride":12},{"buffer":0,"byteOffset":956520,"byteLength":79712,"target":34963}],"buffers":[{"byteLength":1036232,"uri":"data:application/octet-stream;base64,"}],"accessors":[{"bufferView":0,"componentType":5126,"count":39855,"max":[107.48252868652344,107.32942962646484,211.49899291992188],"min":[-107.46927642822266,-107.4995346069336,-0.0010000000474974513],"type":"VEC3"},{"bufferView":1,"componentType":5126,"count":39855,"max":[1,1,1],"min":[-1,-1,-1],"type":"VEC3"},{"bufferView":2,"componentType":5123,"count":39855,"max":[39854],"min":[0],"type":"SCALAR"}],"materials":[{"pbrMetallicRoughness":{"baseColorFactor":[1,0.4980392156862745,0.4980392156862745,1],"metallicFactor":0,"roughnessFactor":0.9},"extensions":{"KHR_materials_unlit":{}}}],"meshes":[{"primitives":[{"mode":4,"attributes":{"POSITION":0,"NORMAL":1},"indices":2,"material":0}]}],"extensionsUsed":["KHR_materials_unlit"]}